<?xml version="1.0" standalone="no"?>
<!DOCTYPE svg PUBLIC "-//W3C//DTD SVG 20010904//EN"
 "http://www.w3.org/TR/2001/REC-SVG-20010904/DTD/svg10.dtd">
<svg version="1.0" xmlns="http://www.w3.org/2000/svg"
 width="420.000000pt" height="420.000000pt" viewBox="0 0 420.000000 420.000000"
 preserveAspectRatio="xMidYMid meet">

<g transform="translate(0.000000,420.000000) scale(0.100000,-0.100000)"
fill="#000000" stroke="none">
<path d="M300 4186 c-144 -41 -247 -145 -286 -290 -20 -75 -20 -3516 0 -3591
39 -148 142 -252 290 -291 76 -20 3516 -20 3592 0 148 39 251 143 290 291 20
74 20 3516 0 3590 -39 148 -142 252 -290 291 -72 19 -3526 19 -3596 0z m2060
-951 c102 -49 187 -92 188 -97 2 -4 9 -5 14 -2 7 5 8 2 4 -5 -5 -7 -15 -10
-23 -7 -8 3 -22 -2 -31 -12 -10 -9 -14 -13 -9 -8 14 20 7 29 -11 13 -10 -10
-22 -14 -25 -10 -4 3 -7 2 -7 -4 0 -6 -7 -13 -14 -16 -11 -4 -13 -1 -9 11 5
14 3 15 -8 5 -7 -7 -21 -13 -31 -13 -12 0 -16 -5 -12 -17 5 -14 4 -15 -4 -4
-5 7 -15 10 -21 7 -6 -4 -11 -2 -11 4 0 7 -7 5 -16 -4 -8 -9 -24 -21 -35 -26
-15 -9 -17 -8 -12 7 6 15 5 16 -9 3 -9 -8 -14 -18 -11 -22 2 -5 -1 -8 -6 -8
-6 0 -11 6 -12 13 0 9 -2 9 -5 0 -3 -7 -12 -9 -20 -6 -8 3 -14 0 -14 -6 0 -6
-11 -11 -25 -11 -13 0 -29 -8 -34 -17 -6 -10 -11 -12 -11 -5 0 6 -5 12 -11 12
-5 0 -7 -5 -3 -11 4 -7 -1 -7 -16 1 -12 7 -20 8 -17 2 4 -5 -4 -14 -18 -20
-21 -10 -23 -9 -20 11 2 12 6 102 10 199 l7 177 52 -23 c28 -13 134 -63 236
-111z m-783 -665 l451 -93 169 -169 c92 -93 161 -167 153 -164 -22 7 -1076
276 -1082 276 -4 0 59 -136 138 -302 79 -167 144 -308 144 -314 0 -6 -70 -43
-157 -82 l-156 -70 -159 327 c-210 428 -368 758 -368 764 0 3 93 -14 208 -38
114 -23 410 -84 659 -135z"/>
</g>
</svg>
